<svg xmlns="http://www.w3.org/2000/svg" viewBox="0 0 64 64" fill="none">
  <!-- 像素蝴蝶结 - 紫色 -->
  <rect x="8" y="16" width="8" height="8" fill="#A855F7"/>
  <rect x="16" y="12" width="8" height="8" fill="#A855F7"/>
  <rect x="16" y="20" width="8" height="8" fill="#C084FC"/>
  <rect x="24" y="16" width="8" height="8" fill="#A855F7"/>
  <rect x="24" y="24" width="8" height="8" fill="#A855F7"/>
  <rect x="28" y="28" width="8" height="8" fill="#7C3AED"/>
  <rect x="28" y="36" width="8" height="8" fill="#7C3AED"/>
  <rect x="36" y="16" width="8" height="8" fill="#A855F7"/>
  <rect x="36" y="24" width="8" height="8" fill="#A855F7"/>
  <rect x="44" y="12" width="8" height="8" fill="#A855F7"/>
  <rect x="44" y="20" width="8" height="8" fill="#C084FC"/>
  <rect x="52" y="16" width="8" height="8" fill="#A855F7"/>
  <rect x="8" y="40" width="8" height="8" fill="#A855F7"/>
  <rect x="16" y="36" width="8" height="8" fill="#A855F7"/>
  <rect x="16" y="44" width="8" height="8" fill="#C084FC"/>
  <rect x="24" y="40" width="8" height="8" fill="#A855F7"/>
  <rect x="24" y="32" width="8" height="8" fill="#A855F7"/>
  <rect x="36" y="40" width="8" height="8" fill="#A855F7"/>
  <rect x="36" y="32" width="8" height="8" fill="#A855F7"/>
  <rect x="44" y="36" width="8" height="8" fill="#A855F7"/>
  <rect x="44" y="44" width="8" height="8" fill="#C084FC"/>
  <rect x="52" y="40" width="8" height="8" fill="#A855F7"/>
</svg>
