<svg xmlns="http://www.w3.org/2000/svg" viewBox="0 0 64 64" fill="none">
  <!-- 像素皇冠 - 金色/橙色 -->
  <rect x="8" y="12" width="8" height="8" fill="#F59E0B"/>
  <rect x="28" y="12" width="8" height="8" fill="#F59E0B"/>
  <rect x="48" y="12" width="8" height="8" fill="#F59E0B"/>
  <rect x="8" y="20" width="8" height="8" fill="#F59E0B"/>
  <rect x="16" y="20" width="8" height="8" fill="#FBBF24"/>
  <rect x="24" y="20" width="8" height="8" fill="#F59E0B"/>
  <rect x="28" y="20" width="8" height="8" fill="#F59E0B"/>
  <rect x="36" y="20" width="8" height="8" fill="#FBBF24"/>
  <rect x="44" y="20" width="8" height="8" fill="#F59E0B"/>
  <rect x="48" y="20" width="8" height="8" fill="#F59E0B"/>
  <rect x="8" y="28" width="8" height="8" fill="#F59E0B"/>
  <rect x="16" y="28" width="8" height="8" fill="#FBBF24"/>
  <rect x="24" y="28" width="8" height="8" fill="#FBBF24"/>
  <rect x="32" y="28" width="8" height="8" fill="#FBBF24"/>
  <rect x="40" y="28" width="8" height="8" fill="#FBBF24"/>
  <rect x="48" y="28" width="8" height="8" fill="#F59E0B"/>
  <rect x="8" y="36" width="8" height="8" fill="#F59E0B"/>
  <rect x="16" y="36" width="8" height="8" fill="#F59E0B"/>
  <rect x="24" y="36" width="8" height="8" fill="#F59E0B"/>
  <rect x="32" y="36" width="8" height="8" fill="#F59E0B"/>
  <rect x="40" y="36" width="8" height="8" fill="#F59E0B"/>
  <rect x="48" y="36" width="8" height="8" fill="#F59E0B"/>
  <rect x="12" y="44" width="8" height="8" fill="#DC2626"/>
  <rect x="28" y="44" width="8" height="8" fill="#DC2626"/>
  <rect x="44" y="44" width="8" height="8" fill="#DC2626"/>
  <rect x="8" y="44" width="8" height="8" fill="#F59E0B"/>
  <rect x="20" y="44" width="8" height="8" fill="#F59E0B"/>
  <rect x="36" y="44" width="8" height="8" fill="#F59E0B"/>
  <rect x="48" y="44" width="8" height="8" fill="#F59E0B"/>
</svg>
