<svg xmlns="http://www.w3.org/2000/svg" viewBox="0 0 64 64" fill="none">
  <!-- 像素爱心 - 粉色 -->
  <rect x="16" y="8" width="8" height="8" fill="#FF69B4"/>
  <rect x="24" y="8" width="8" height="8" fill="#FF69B4"/>
  <rect x="36" y="8" width="8" height="8" fill="#FF69B4"/>
  <rect x="44" y="8" width="8" height="8" fill="#FF69B4"/>
  <rect x="8" y="16" width="8" height="8" fill="#FF69B4"/>
  <rect x="16" y="16" width="8" height="8" fill="#FFB6C1"/>
  <rect x="24" y="16" width="8" height="8" fill="#FF69B4"/>
  <rect x="28" y="16" width="8" height="8" fill="#FF69B4"/>
  <rect x="36" y="16" width="8" height="8" fill="#FF69B4"/>
  <rect x="44" y="16" width="8" height="8" fill="#FFB6C1"/>
  <rect x="52" y="16" width="8" height="8" fill="#FF69B4"/>
  <rect x="8" y="24" width="8" height="8" fill="#FF69B4"/>
  <rect x="16" y="24" width="8" height="8" fill="#FF69B4"/>
  <rect x="24" y="24" width="8" height="8" fill="#FF69B4"/>
  <rect x="32" y="24" width="8" height="8" fill="#FF69B4"/>
  <rect x="40" y="24" width="8" height="8" fill="#FF69B4"/>
  <rect x="48" y="24" width="8" height="8" fill="#FF69B4"/>
  <rect x="56" y="24" width="8" height="8" fill="#FF69B4"/>
  <rect x="12" y="32" width="8" height="8" fill="#FF69B4"/>
  <rect x="20" y="32" width="8" height="8" fill="#FF69B4"/>
  <rect x="28" y="32" width="8" height="8" fill="#FF69B4"/>
  <rect x="36" y="32" width="8" height="8" fill="#FF69B4"/>
  <rect x="44" y="32" width="8" height="8" fill="#FF69B4"/>
  <rect x="52" y="32" width="8" height="8" fill="#FF69B4"/>
  <rect x="16" y="40" width="8" height="8" fill="#FF69B4"/>
  <rect x="24" y="40" width="8" height="8" fill="#FF69B4"/>
  <rect x="32" y="40" width="8" height="8" fill="#FF69B4"/>
  <rect x="40" y="40" width="8" height="8" fill="#FF69B4"/>
  <rect x="48" y="40" width="8" height="8" fill="#FF69B4"/>
  <rect x="24" y="48" width="8" height="8" fill="#FF69B4"/>
  <rect x="32" y="48" width="8" height="8" fill="#FF69B4"/>
  <rect x="40" y="48" width="8" height="8" fill="#FF69B4"/>
  <rect x="32" y="56" width="8" height="8" fill="#FF69B4"/>
</svg>
